<svg width="100" height="40" viewBox="0 0 100 40" fill="none" xmlns="http://www.w3.org/2000/svg">
<g clip-path="url(#clip0_25_2)">
<path fill-rule="evenodd" clip-rule="evenodd" d="M99.9857 40H0V0H100V40H99.9857Z" fill="#0058AB"/>
<path fill-rule="evenodd" clip-rule="evenodd" d="M2 20C2 29.8325 22.1163 38 50.0072 38C77.898 38 98 29.8325 98 20C98 10.1675 77.8837 2 50.0072 2C22.1306 2 2 10.1675 2 20Z" fill="#FBD914"/>
<path d="M24.2266 11.296C26.9146 11.296 29.0666 11.896 30.6826 13.096C32.2986 14.28 33.1066 16.44 33.1066 19.576C33.1066 22.664 32.3306 24.84 30.7786 26.104C29.2266 27.368 27.1386 28 24.5146 28H18.8746V11.296H24.2266ZM23.8186 14.776V24.52H24.8026C25.5706 24.52 26.1866 24.368 26.6506 24.064C27.1146 23.76 27.4586 23.256 27.6826 22.552C27.9066 21.832 28.0186 20.84 28.0186 19.576C28.0186 18.328 27.8986 17.36 27.6586 16.672C27.4346 15.968 27.0906 15.48 26.6266 15.208C26.1626 14.92 25.5626 14.776 24.8266 14.776H23.8186Z" fill="#0058AB"/>
<path d="M42.6886 10.816C45.2326 10.816 47.2886 11.576 48.8566 13.096L46.6726 15.664C45.5526 14.768 44.3606 14.32 43.0966 14.32C42.5046 14.32 42.0566 14.424 41.7526 14.632C41.4486 14.84 41.2966 15.136 41.2966 15.52C41.2966 15.808 41.3766 16.048 41.5366 16.24C41.7126 16.416 41.9926 16.584 42.3766 16.744C42.7766 16.904 43.4166 17.128 44.2966 17.416C46.0566 17.976 47.3206 18.68 48.0886 19.528C48.8726 20.376 49.2646 21.536 49.2646 23.008C49.2646 24.08 48.9766 25.032 48.4006 25.864C47.8406 26.68 47.0326 27.32 45.9766 27.784C44.9206 28.248 43.6726 28.48 42.2326 28.48C40.7606 28.48 39.4646 28.248 38.3446 27.784C37.2246 27.32 36.2806 26.712 35.5126 25.96L37.9366 23.296C39.2006 24.384 40.5686 24.928 42.0406 24.928C42.7286 24.928 43.2486 24.792 43.6006 24.52C43.9526 24.232 44.1286 23.864 44.1286 23.416C44.1286 23.08 44.0486 22.8 43.8886 22.576C43.7446 22.352 43.4806 22.144 43.0966 21.952C42.7126 21.76 42.1526 21.552 41.4166 21.328C39.4806 20.72 38.1286 19.992 37.3606 19.144C36.5926 18.28 36.2086 17.208 36.2086 15.928C36.2086 14.888 36.4886 13.984 37.0486 13.216C37.6086 12.448 38.3766 11.856 39.3526 11.44C40.3446 11.024 41.4566 10.816 42.6886 10.816Z" fill="#0058AB"/>
<path d="M57.518 11.296V28H52.574V11.296H57.518ZM67.406 11.296L62.678 18.712L67.838 28H62.222L57.662 19.096L62.318 11.296H67.406Z" fill="#0058AB"/>
<path d="M76.2239 10.816C78.7679 10.816 80.8239 11.576 82.3919 13.096L80.2079 15.664C79.0879 14.768 77.8959 14.32 76.6319 14.32C76.0399 14.32 75.5919 14.424 75.2879 14.632C74.9839 14.84 74.8319 15.136 74.8319 15.52C74.8319 15.808 74.9119 16.048 75.0719 16.24C75.2479 16.416 75.5279 16.584 75.9119 16.744C76.3119 16.904 76.9519 17.128 77.8319 17.416C79.5919 17.976 80.8559 18.68 81.6239 19.528C82.4079 20.376 82.7999 21.536 82.7999 23.008C82.7999 24.08 82.5119 25.032 81.9359 25.864C81.3759 26.68 80.5679 27.32 79.5119 27.784C78.4559 28.248 77.2079 28.48 75.7679 28.48C74.2959 28.48 72.9999 28.248 71.8799 27.784C70.7599 27.32 69.8159 26.712 69.0479 25.96L71.4719 23.296C72.7359 24.384 74.1039 24.928 75.5759 24.928C76.2639 24.928 76.7839 24.792 77.1359 24.52C77.4879 24.232 77.6639 23.864 77.6639 23.416C77.6639 23.08 77.5839 22.8 77.4239 22.576C77.2799 22.352 77.0159 22.144 76.6319 21.952C76.2479 21.76 75.6879 21.552 74.9519 21.328C73.0159 20.72 71.6639 19.992 70.8959 19.144C70.1279 18.28 69.7439 17.208 69.7439 15.928C69.7439 14.888 70.0239 13.984 70.5839 13.216C71.1439 12.448 71.9119 11.856 72.8879 11.44C73.8799 11.024 74.9919 10.816 76.2239 10.816Z" fill="#0058AB"/>
</g>
<defs>
<clipPath id="clip0_25_2">
<rect width="100" height="40" fill="white"/>
</clipPath>
</defs>
</svg>
