<svg width="56" height="56" viewBox="0 0 56 56" fill="none" xmlns="http://www.w3.org/2000/svg">
<path d="M51.8286 33.1543L56 12.8114H14.8914L13.4629 6.04571L1.07429 0L0 2.13714L11.3143 7.6L17.0286 34.8914H50.0571C50.0571 34.8914 53.3143 36.9371 52.0571 39.52C51.4971 40.32 50.6286 41.3029 49.0743 41.3029H16.2057V43.6571H49.0857C51.3486 43.6571 53.2571 42.4686 54.3314 40.5714C56.4343 36.64 51.8286 33.1543 51.8286 33.1543V33.1543ZM19.0629 32.5029L15.3714 15.1771H53.1429L49.5657 32.5029H19.0629Z" fill="white"/>
<path d="M22.9943 46.9828C20.4914 46.9828 18.4686 48.9943 18.4686 51.4857C18.4686 53.9771 20.4914 55.9886 22.9943 55.9886C25.4971 55.9886 27.52 53.9771 27.52 51.4857C27.52 48.9943 25.4971 46.9828 22.9943 46.9828ZM22.9943 53.6228C21.8057 53.6228 20.8457 52.6743 20.8457 51.4857C20.8457 50.2971 21.7943 49.3486 22.9943 49.3486C24.1943 49.3486 25.1429 50.2971 25.1429 51.4857C25.1429 52.6743 24.1829 53.6228 22.9943 53.6228Z" fill="white"/>
<path d="M47.3029 46.9828C44.8 46.9828 42.7771 48.9943 42.7771 51.4857C42.7771 53.9771 44.8 56 47.3029 56C49.8057 56 51.9543 53.9886 51.8286 51.4971C51.8286 49.0057 49.8057 46.9828 47.3029 46.9828ZM49.4514 51.4971C49.4514 52.6857 48.5029 53.6343 47.3029 53.6343C46.1029 53.6343 45.1543 52.6857 45.1543 51.4971C45.1543 50.3086 46.1029 49.36 47.3029 49.36C48.5029 49.36 49.5657 50.3086 49.4514 51.4971Z" fill="white"/>
</svg>
